<svg width="512" height="512" viewBox="0 0 512 512" fill="none" xmlns="http://www.w3.org/2000/svg">
<rect width="512" height="512" fill="white"/>
<g filter="url(#filter0_dd_107_19)">
<path d="M227.483 171.863C227.897 166.478 228.057 160.724 228.5 155.271H199.714C198.594 164.95 197.663 174.04 196.469 183.096C194.223 200.122 191.957 217.147 189.459 234.137C186.28 255.759 179.576 276.383 169.498 295.681C162.647 308.8 154.494 321.272 146.443 333.723C139.55 344.384 131.207 354.186 128.254 366.975C126.142 376.119 127.641 384.538 133.613 391.919C139.093 398.694 146.405 401.871 154.893 403.581C169.564 406.537 187.129 399.578 194.627 385.068C203.912 367.097 207.694 347.593 211.351 328.082C214 313.951 215.614 299.622 217.522 285.358C218.977 274.48 220.351 263.584 221.425 252.663C222.36 243.155 222.792 233.6 223.505 224.07C224.73 207.692 225.988 191.317 227.247 174.942L227.483 171.863Z" fill="#0877B9"/>
</g>
<g filter="url(#filter1_dd_107_19)">
<path d="M333.117 334.523C328.207 314.987 327.687 295.219 329.321 275.218L336.595 155.27H294L280.25 311.769C279.652 320.313 278.68 328.856 278.628 337.404C278.591 343.428 279.583 349.497 280.526 355.48C283 371.174 289.783 384.495 303.231 393.591C317.616 403.321 333.541 405.733 350.628 403.421C369.06 400.926 382.319 391.115 392.195 375.979C400.26 363.62 404.237 349.671 407.314 335.467C408.643 329.333 409.05 323 409.887 316.68H397.783C396.713 327.04 393.687 336.51 387.072 343.973C377.632 354.624 365.368 356.424 352.032 352.472C342.673 349.699 335.625 344.504 333.117 334.523Z" fill="#2489CA"/>
</g>
<g filter="url(#filter2_dd_107_19)">
<path d="M147.702 161.286C164.097 152.628 181.792 155.966 199.714 155.271L409.122 155.27V108.318H403.316C366.323 108.318 329.326 107.964 292.338 108.414C252.811 108.895 213.225 106.225 173.761 110.335C160.906 111.674 149.27 115.979 139.987 125.342C123.585 141.886 113.654 162.166 106.479 183.991C104.882 188.848 103.502 193.776 102 198.743C109.566 200.207 115.5 200.035 118.248 192.163C118.926 190.223 120.405 188.529 121.664 186.832C128.998 176.95 136.496 167.204 147.702 161.286Z" fill="#3C99D4"/>
</g>
<defs>
<filter id="filter0_dd_107_19" x="112.948" y="147.271" width="129.952" height="277.779" filterUnits="userSpaceOnUse" color-interpolation-filters="sRGB">
<feFlood flood-opacity="0" result="BackgroundImageFix"/>
<feColorMatrix in="SourceAlpha" type="matrix" values="0 0 0 0 0 0 0 0 0 0 0 0 0 0 0 0 0 0 127 0" result="hardAlpha"/>
<feOffset dy="6.4"/>
<feGaussianBlur stdDeviation="7.2"/>
<feColorMatrix type="matrix" values="0 0 0 0 0 0 0 0 0 0 0 0 0 0 0 0 0 0 0.13 0"/>
<feBlend mode="normal" in2="BackgroundImageFix" result="effect1_dropShadow_107_19"/>
<feColorMatrix in="SourceAlpha" type="matrix" values="0 0 0 0 0 0 0 0 0 0 0 0 0 0 0 0 0 0 127 0" result="hardAlpha"/>
<feOffset dy="1.2"/>
<feGaussianBlur stdDeviation="1.8"/>
<feColorMatrix type="matrix" values="0 0 0 0 0 0 0 0 0 0 0 0 0 0 0 0 0 0 0.1 0"/>
<feBlend mode="normal" in2="effect1_dropShadow_107_19" result="effect2_dropShadow_107_19"/>
<feBlend mode="normal" in="SourceGraphic" in2="effect2_dropShadow_107_19" result="shape"/>
</filter>
<filter id="filter1_dd_107_19" x="264.227" y="147.27" width="160.06" height="277.764" filterUnits="userSpaceOnUse" color-interpolation-filters="sRGB">
<feFlood flood-opacity="0" result="BackgroundImageFix"/>
<feColorMatrix in="SourceAlpha" type="matrix" values="0 0 0 0 0 0 0 0 0 0 0 0 0 0 0 0 0 0 127 0" result="hardAlpha"/>
<feOffset dy="6.4"/>
<feGaussianBlur stdDeviation="7.2"/>
<feColorMatrix type="matrix" values="0 0 0 0 0 0 0 0 0 0 0 0 0 0 0 0 0 0 0.13 0"/>
<feBlend mode="normal" in2="BackgroundImageFix" result="effect1_dropShadow_107_19"/>
<feColorMatrix in="SourceAlpha" type="matrix" values="0 0 0 0 0 0 0 0 0 0 0 0 0 0 0 0 0 0 127 0" result="hardAlpha"/>
<feOffset dy="1.2"/>
<feGaussianBlur stdDeviation="1.8"/>
<feColorMatrix type="matrix" values="0 0 0 0 0 0 0 0 0 0 0 0 0 0 0 0 0 0 0.1 0"/>
<feBlend mode="normal" in2="effect1_dropShadow_107_19" result="effect2_dropShadow_107_19"/>
<feBlend mode="normal" in="SourceGraphic" in2="effect2_dropShadow_107_19" result="shape"/>
</filter>
<filter id="filter2_dd_107_19" x="87.6" y="100" width="335.922" height="120.256" filterUnits="userSpaceOnUse" color-interpolation-filters="sRGB">
<feFlood flood-opacity="0" result="BackgroundImageFix"/>
<feColorMatrix in="SourceAlpha" type="matrix" values="0 0 0 0 0 0 0 0 0 0 0 0 0 0 0 0 0 0 127 0" result="hardAlpha"/>
<feOffset dy="6.4"/>
<feGaussianBlur stdDeviation="7.2"/>
<feColorMatrix type="matrix" values="0 0 0 0 0 0 0 0 0 0 0 0 0 0 0 0 0 0 0.13 0"/>
<feBlend mode="normal" in2="BackgroundImageFix" result="effect1_dropShadow_107_19"/>
<feColorMatrix in="SourceAlpha" type="matrix" values="0 0 0 0 0 0 0 0 0 0 0 0 0 0 0 0 0 0 127 0" result="hardAlpha"/>
<feOffset dy="1.2"/>
<feGaussianBlur stdDeviation="1.8"/>
<feColorMatrix type="matrix" values="0 0 0 0 0 0 0 0 0 0 0 0 0 0 0 0 0 0 0.1 0"/>
<feBlend mode="normal" in2="effect1_dropShadow_107_19" result="effect2_dropShadow_107_19"/>
<feBlend mode="normal" in="SourceGraphic" in2="effect2_dropShadow_107_19" result="shape"/>
</filter>
</defs>
</svg>
