<svg width="150" height="150" viewBox="0 0 150 150" fill="none" xmlns="http://www.w3.org/2000/svg">
<g clip-path="url(#clip0_115_18)">
<path d="M61.1345 33.9686C61.3361 31.3453 61.414 28.542 61.6298 25.8854H47.6053C47.0598 30.6007 46.6062 35.0294 46.0244 39.4413C44.9304 47.7363 43.8262 56.0309 42.6092 64.3085C41.0606 74.8424 37.7943 84.8903 32.8846 94.2918C29.5468 100.684 25.5746 106.76 21.6524 112.826C18.2939 118.02 14.2293 122.795 12.7906 129.026C11.7618 133.481 12.4921 137.583 15.4013 141.179C18.0714 144.479 21.6339 146.027 25.7692 146.86C32.9164 148.3 41.4742 144.91 45.1269 137.841C49.6508 129.085 51.4934 119.583 53.2751 110.078C54.5656 103.193 55.3516 96.2119 56.2812 89.2629C56.9901 83.9629 57.6595 78.6546 58.1828 73.3338C58.6383 68.702 58.8487 64.0465 59.1961 59.4036C59.7929 51.426 60.4059 43.4495 61.0189 35.4731L61.1345 33.9686Z" fill="#0877B9"/>
<path d="M112.598 113.216C110.207 103.698 109.953 94.0672 110.749 84.3225L114.293 25.8851H93.541L86.8419 102.13C86.5509 106.293 86.0772 110.455 86.0519 114.619C86.0341 117.554 86.517 120.511 86.9766 123.426C88.1819 131.072 91.4866 137.562 98.0382 141.993C105.047 146.734 112.805 147.909 121.13 146.782C130.11 145.567 136.569 140.787 141.381 133.413C145.31 127.391 147.248 120.595 148.747 113.676C149.394 110.687 149.593 107.602 150 104.523H144.103C143.582 109.57 142.108 114.184 138.885 117.82C134.286 123.009 128.311 123.886 121.814 121.96C117.254 120.609 113.821 118.079 112.598 113.216Z" fill="#2489CA"/>
<path d="M22.2659 28.8157C30.2532 24.5978 38.8741 26.2239 47.6054 25.8853L149.627 25.885V3.01014H146.799C128.776 3.01014 110.751 2.8379 92.7313 3.05704C73.474 3.29121 54.1879 1.99022 34.9613 3.99265C28.6984 4.64493 23.0298 6.7424 18.5071 11.3042C10.5163 19.3641 5.67798 29.2445 2.1822 39.8776C1.40429 42.2438 0.731696 44.6446 0 47.0646C3.68632 47.7776 6.57731 47.6942 7.91606 43.8589C8.246 42.9137 8.96676 42.0882 9.58034 41.2615C13.1534 36.4471 16.8061 31.6989 22.2659 28.8157Z" fill="#3C99D4"/>
</g>
<defs>
<clipPath id="clip0_115_18">
<rect width="150" height="150" fill="white"/>
</clipPath>
</defs>
</svg>
