<svg width="2200" height="2200" viewBox="0 0 2200 2200" fill="none" xmlns="http://www.w3.org/2000/svg">
<g clip-path="url(#clip0_115_51)">
<path d="M896.64 498.206C899.597 459.73 900.738 418.615 903.903 379.651H698.211C690.211 448.809 683.558 513.764 675.024 578.472C658.98 700.132 642.784 821.786 624.936 943.19C602.222 1097.69 554.316 1245.06 482.308 1382.95C433.352 1476.69 375.095 1565.81 317.569 1654.78C268.31 1730.96 208.697 1801 187.595 1892.38C172.507 1957.72 183.217 2017.88 225.886 2070.62C265.048 2119.03 317.297 2141.73 377.948 2153.95C482.774 2175.07 608.288 2125.34 661.861 2021.66C728.212 1893.25 755.237 1753.88 781.369 1614.47C800.295 1513.5 811.824 1411.11 825.457 1309.19C835.855 1231.46 845.672 1153.6 853.347 1075.56C860.029 1007.63 863.114 939.348 868.209 871.252C876.964 754.225 885.957 637.216 894.949 520.206L896.64 498.206Z" fill="#0877B9"/>
<path d="M1651.44 1660.5C1616.36 1520.9 1612.64 1379.65 1624.32 1236.73L1676.3 379.648H1371.93L1273.68 1497.91C1269.41 1558.96 1262.47 1620 1262.09 1681.08C1261.83 1724.13 1268.92 1767.49 1275.66 1810.25C1293.33 1922.39 1341.8 2017.57 1437.89 2082.57C1540.68 2152.09 1654.47 2169.33 1776.57 2152.8C1908.28 2134.98 2003.01 2064.87 2073.59 1956.72C2131.21 1868.41 2159.63 1768.73 2181.62 1667.24C2191.12 1623.41 2194.03 1578.16 2200 1533H2113.51C2105.87 1607.03 2084.24 1674.7 2036.98 1728.02C1969.52 1804.13 1881.9 1816.99 1786.6 1788.75C1719.73 1768.94 1669.37 1731.82 1651.44 1660.5Z" fill="#2489CA"/>
<path d="M326.567 422.63C443.714 360.768 570.153 384.617 698.213 379.651L2194.54 379.647V44.1488H2153.05C1888.72 44.1488 1624.35 41.6226 1360.06 44.8366C1077.62 48.2711 794.755 29.19 512.765 58.5589C420.91 68.1257 337.77 98.8886 271.437 165.795C154.239 284.007 83.2771 428.919 32.0056 584.872C20.5963 619.576 10.7315 654.788 0 690.28C54.066 700.739 96.4672 699.515 116.102 643.264C120.941 629.401 131.513 617.294 140.512 605.168C192.917 534.558 246.489 464.917 326.567 422.63Z" fill="#3C99D4"/>
</g>
<defs>
<clipPath id="clip0_115_51">
<rect width="2200" height="2200" fill="white"/>
</clipPath>
</defs>
</svg>
